<svg width="720" height="520" viewBox="0 0 720 520" fill="none" xmlns="http://www.w3.org/2000/svg" role="img" aria-label="Panel de MediTurnos con agenda, pacientes y recordatorios">
  <defs>
    <linearGradient id="bgCard" x1="76" y1="42" x2="655" y2="431" gradientUnits="userSpaceOnUse">
      <stop offset="0" stop-color="#FFF8F6"/>
      <stop offset="1" stop-color="#FFE4DB"/>
    </linearGradient>
    <linearGradient id="accentPanel" x1="0" y1="0" x2="1" y2="1">
      <stop offset="0" stop-color="#FF7867"/>
      <stop offset="1" stop-color="#E85959"/>
    </linearGradient>
    <linearGradient id="softBlob" x1="0" y1="0" x2="1" y2="1">
      <stop offset="0" stop-color="#FFFFFF" stop-opacity="0.48"/>
      <stop offset="1" stop-color="#FFFFFF" stop-opacity="0.08"/>
    </linearGradient>
    <filter id="shadow" x="57" y="28" width="606" height="412" filterUnits="userSpaceOnUse" color-interpolation-filters="sRGB">
      <feFlood flood-opacity="0" result="BackgroundImageFix"/>
      <feColorMatrix in="SourceAlpha" type="matrix" values="0 0 0 0 0 0 0 0 0 0 0 0 0 0 0 0 0 0 127 0" result="hardAlpha"/>
      <feOffset dy="12"/>
      <feGaussianBlur stdDeviation="18"/>
      <feColorMatrix type="matrix" values="0 0 0 0 0.451 0 0 0 0 0.131 0 0 0 0 0.131 0 0 0 0.15 0"/>
      <feBlend mode="normal" in2="BackgroundImageFix" result="effect1_dropShadow_0_1"/>
      <feBlend mode="normal" in="SourceGraphic" in2="effect1_dropShadow_0_1" result="shape"/>
    </filter>
  </defs>

  <circle cx="576" cy="82" r="88" fill="url(#softBlob)"/>
  <circle cx="146" cy="426" r="108" fill="url(#softBlob)"/>

  <g filter="url(#shadow)">
    <rect x="93" y="52" width="534" height="340" rx="32" fill="url(#bgCard)"/>
    <rect x="93" y="52" width="534" height="340" rx="32" stroke="white" stroke-opacity="0.62"/>
  </g>

  <rect x="124" y="84" width="162" height="276" rx="26" fill="url(#accentPanel)"/>
  <rect x="124" y="84" width="162" height="276" rx="26" fill="#0B1220" fill-opacity="0.06"/>

  <rect x="146" y="112" width="118" height="18" rx="9" fill="white" fill-opacity="0.26"/>
  <rect x="146" y="146" width="92" height="92" rx="24" fill="white" fill-opacity="0.12"/>
  <path d="M176 193.5H209.5" stroke="white" stroke-width="12" stroke-linecap="round"/>
  <path d="M192.75 176.75V210.25" stroke="white" stroke-width="12" stroke-linecap="round"/>
  <rect x="146" y="260" width="118" height="14" rx="7" fill="white" fill-opacity="0.2"/>
  <rect x="146" y="284" width="96" height="14" rx="7" fill="white" fill-opacity="0.14"/>
  <rect x="146" y="320" width="94" height="22" rx="11" fill="white" fill-opacity="0.18"/>

  <rect x="312" y="90" width="282" height="72" rx="24" fill="white" fill-opacity="0.94"/>
  <circle cx="346" cy="126" r="18" fill="#FFE0D9"/>
  <path d="M338.5 126L344 131.5L354.5 121" stroke="#E85959" stroke-width="4.5" stroke-linecap="round" stroke-linejoin="round"/>
  <rect x="374" y="108" width="138" height="14" rx="7" fill="#2A2D38" fill-opacity="0.9"/>
  <rect x="374" y="132" width="192" height="12" rx="6" fill="#7A7E89" fill-opacity="0.42"/>

  <rect x="312" y="178" width="132" height="182" rx="24" fill="white" fill-opacity="0.94"/>
  <rect x="330" y="198" width="48" height="12" rx="6" fill="#2A2D38" fill-opacity="0.84"/>
  <rect x="330" y="226" width="96" height="100" rx="18" fill="#FFF2EE"/>
  <path d="M348 250H408" stroke="#E9B6A6" stroke-width="6" stroke-linecap="round"/>
  <path d="M348 272H396" stroke="#E9B6A6" stroke-width="6" stroke-linecap="round"/>
  <path d="M348 294H402" stroke="#E9B6A6" stroke-width="6" stroke-linecap="round"/>
  <rect x="330" y="336" width="82" height="10" rx="5" fill="#7A7E89" fill-opacity="0.32"/>

  <rect x="462" y="178" width="132" height="182" rx="24" fill="#FFF7F4"/>
  <rect x="480" y="198" width="44" height="12" rx="6" fill="#2A2D38" fill-opacity="0.84"/>
  <circle cx="498" cy="242" r="18" fill="#FFD2C8"/>
  <path d="M498 235V249" stroke="#E85959" stroke-width="4" stroke-linecap="round"/>
  <path d="M491 242H505" stroke="#E85959" stroke-width="4" stroke-linecap="round"/>
  <rect x="480" y="274" width="90" height="14" rx="7" fill="#E85959" fill-opacity="0.2"/>
  <rect x="480" y="300" width="66" height="12" rx="6" fill="#7A7E89" fill-opacity="0.34"/>
  <rect x="480" y="334" width="72" height="10" rx="5" fill="#7A7E89" fill-opacity="0.24"/>

  <rect x="228" y="398" width="268" height="52" rx="26" fill="white" fill-opacity="0.18" stroke="white" stroke-opacity="0.26"/>
  <circle cx="266" cy="424" r="14" fill="white" fill-opacity="0.22"/>
  <path d="M260 424L264 428L272.5 419.5" stroke="white" stroke-width="3.6" stroke-linecap="round" stroke-linejoin="round"/>
  <rect x="292" y="413" width="132" height="11" rx="5.5" fill="white" fill-opacity="0.8"/>
  <rect x="292" y="430" width="174" height="8" rx="4" fill="white" fill-opacity="0.36"/>
</svg>