<svg width="1200" height="400" viewBox="0 0 1200 400" fill="none" xmlns="http://www.w3.org/2000/svg" role="img" aria-label="Portada MediTurnos">
  <defs>
    <linearGradient id="bg" x1="0" y1="0" x2="1200" y2="400" gradientUnits="userSpaceOnUse">
      <stop offset="0" stop-color="#0B3C8A"/>
      <stop offset="1" stop-color="#1273EA"/>
    </linearGradient>
    <linearGradient id="heart" x1="0" y1="0" x2="1" y2="1">
      <stop offset="0" stop-color="#FF5A7A"/>
      <stop offset="1" stop-color="#FF2D55"/>
    </linearGradient>
  </defs>

  <rect width="1200" height="400" fill="url(#bg)"/>

  <circle cx="1040" cy="82" r="110" fill="white" fill-opacity="0.08"/>
  <circle cx="160" cy="348" r="140" fill="white" fill-opacity="0.06"/>

  <g transform="translate(120 94)">
    <rect x="0" y="0" width="120" height="120" rx="28" fill="white" fill-opacity="0.15"/>
    <path d="M60 99C59 99 58 98.6 57.2 97.8L24.7 65.3C11.8 52.4 11.8 31.6 24.7 18.7C37.6 5.8 58.4 5.8 71.3 18.7L72 19.4L72.7 18.7C85.6 5.8 106.4 5.8 119.3 18.7C132.2 31.6 132.2 52.4 119.3 65.3L86.8 97.8C86 98.6 85 99 84 99H60Z" fill="url(#heart)" transform="translate(-12 6) scale(0.86)"/>
    <path d="M45 60H59V46H69V60H83V70H69V84H59V70H45V60Z" fill="white"/>
  </g>

  <text x="288" y="178" fill="white" font-family="Segoe UI, Arial, sans-serif" font-size="74" font-weight="700">MediTurnos</text>
  <text x="292" y="230" fill="white" fill-opacity="0.86" font-family="Segoe UI, Arial, sans-serif" font-size="28" font-weight="500">Agenda medica inteligente para profesionales</text>
</svg>
