<svg xmlns="http://www.w3.org/2000/svg" width="256" height="256" viewBox="0 0 256 256"><path fill="#009ee3" d="M209.182 46.297c-13.88-9.404-39.117-11.58-39.117-11.58s-22.016 2.176-35.895 11.58c-1.83 1.25-3.386 2.92-4.66 4.965c-1.275-2.045-2.83-3.714-4.66-4.965C111.07 34.717 89.055 32.54 89.055 32.54S63.818 36.893 50 46.297c-6.84 4.65-10.82 11.58-10.82 11.58s13.88 9.404 39.117 11.58c25.237 2.176 35.895-11.58 35.895-11.58s1.556-2.92 4.66-4.964c3.105 2.044 4.66 4.964 4.66 4.964s10.657 13.757 35.895 11.58c25.237-2.176 39.117-11.58 39.117-11.58s-3.98-6.93-10.82-11.58M128 153.948c-30.8 0-55.908-25.04-55.908-55.772c0-30.733 25.107-55.772 55.908-55.772c30.8 0 55.907 25.04 55.907 55.772c0 30.732-25.106 55.772-55.907 55.772"/><path fill="#fff" d="M146.94 117.388c2.083-2.317 3.39-5.32 3.39-8.625c0-6.94-5.63-12.57-12.568-12.57h-19.49v25.14h19.49c6.938 0 12.568-5.63 12.568-12.57m-9.338-8.545c0 1.95-.91 3.42-2.36 3.42h-10.36V99.8h10.36c1.45 0 2.36 1.47 2.36 3.42v5.593zm-32.083-4.04h-10.1v17.18h10.1v-17.18zm49.95 24.364h-10.1v-17.18h10.1v17.18zM128 70.213c-15.58 0-28.21 12.59-28.21 28.174c0 15.583 12.63 28.173 28.21 28.173s28.21-12.59 28.21-28.173c0-15.583-12.63-28.174-28.21-28.174"/><path fill="#009ee3" d="M117.27 182.728h21.46v-21.214h-21.46z"/><path fill="#fff" d="m162.772 172.132l-10.13-10.13l-10.13 10.13l-5.064-5.065l10.13-10.13l-10.13-10.13l5.064-5.064l10.13 10.13l10.13-10.13l5.065 5.064l-10.13 10.13l10.13 10.13zM93.228 172.132l10.13-10.13l10.13 10.13l5.064-5.065l-10.13-10.13l10.13-10.13l-5.064-5.064l-10.13 10.13l-10.13-10.13l-5.065 5.064l10.13 10.13l-10.13 10.13z"/><path fill="#009ee3" d="M128 223.46c-30.8 0-55.908-25.04-55.908-55.772c0-30.733 25.107-55.772 55.908-55.772c30.8 0 55.907 25.04 55.907 55.772c0 30.732-25.106 55.772-55.907 55.772m0-89.9c-18.892 0-34.267 15.34-34.267 34.128c0 18.79 15.375 34.128 34.267 34.128c18.892 0 34.267-15.338 34.267-34.128c0-18.79-15.375-34.128-34.267-34.128"/></svg>